<svg width="501" height="501" viewBox="0 0 501 501" fill="none" xmlns="http://www.w3.org/2000/svg">
<circle cx="250.5" cy="250.5" r="250.5" fill="#145E61"/>
<circle cx="251.5" cy="233.5" r="97.5" fill="white"/>
<path fill-rule="evenodd" clip-rule="evenodd" d="M345.788 112C362.082 112 375.223 125.123 376 140.566V389L344.977 362.766L327.941 347.323L309.353 331.188L317.118 356.637H154.435C138.188 356.637 125 344.345 125 328.06V140.623C125 125.181 138.211 112.035 154.493 112.035H345.707L345.788 112ZM274.76 177.715H274.413L272.073 180.021C296.084 186.94 307.702 197.746 307.702 197.746C292.227 190.043 278.281 186.191 264.336 184.634C254.259 183.077 244.182 183.896 235.668 184.634H233.352C227.908 184.634 216.325 186.941 200.804 193.11C195.395 195.451 192.291 196.985 192.291 196.985C192.291 196.985 203.896 185.43 229.471 179.261L227.907 177.704C227.907 177.704 208.541 176.966 187.634 192.349C187.634 192.349 166.727 228.605 166.727 273.302C166.727 273.302 178.31 293.367 210.082 294.128C210.082 294.128 214.715 287.982 219.406 282.573C201.568 277.177 194.619 266.383 194.619 266.383C194.619 266.383 196.171 267.144 198.499 268.689H199.194C199.541 268.689 199.703 268.862 199.889 269.035V269.104C200.074 269.289 200.236 269.45 200.584 269.45C204.406 271.019 208.228 272.564 211.356 274.063C218.044 276.914 225.04 278.987 232.205 280.244C242.977 281.801 255.324 282.55 269.386 280.244C276.335 278.687 283.285 277.165 290.235 274.075C294.752 271.768 300.312 269.462 306.416 265.576C306.416 265.576 299.466 276.37 280.876 281.766C284.698 287.14 290.084 293.298 290.084 293.298C321.868 292.606 334.215 272.541 334.91 273.394C334.91 228.766 313.887 192.441 313.887 192.441C294.949 178.442 277.228 177.911 274.1 177.911L274.749 177.68L274.76 177.715ZM276.938 228.448C285.048 228.448 291.59 235.351 291.59 243.808C291.59 252.322 285.014 259.226 276.938 259.226C268.862 259.226 262.286 252.322 262.286 243.877C262.308 235.363 268.896 228.482 276.938 228.482V228.448ZM224.108 228.448C232.184 228.448 238.714 235.351 238.714 243.808C238.714 252.322 232.138 259.226 224.062 259.226C215.986 259.226 209.41 252.322 209.41 243.877C209.41 235.363 215.986 228.482 224.062 228.482L224.108 228.448Z" fill="#77B29C"/>
</svg>
