<svg width="501" height="501" viewBox="0 0 501 501" fill="none" xmlns="http://www.w3.org/2000/svg">
<circle cx="250.5" cy="250.5" r="250.5" fill="#145E61"/>
<path d="M390.218 124.167C388.889 124.019 387.549 124.019 386.22 124.167H113.22C111.471 124.196 109.732 124.479 108.053 125.009L248.94 276.503L390.218 124.167Z" fill="white"/>
<path d="M404.648 138.8L262.688 291.453C259.034 295.375 254.092 297.576 248.94 297.576C243.789 297.576 238.846 295.375 235.193 291.453L94.5001 139.958C94.0676 141.675 93.8383 143.444 93.8176 145.222V355.778C93.8176 361.362 95.8721 366.718 99.529 370.666C103.186 374.615 108.146 376.833 113.318 376.833H386.318C391.489 376.833 396.449 374.615 400.106 370.666C403.763 366.718 405.818 361.362 405.818 355.778V145.222C405.74 143.029 405.345 140.862 404.648 138.8ZM126.675 355.778H113.123V340.723L184.005 264.818L197.753 279.662L126.675 355.778ZM386.123 355.778H372.473L301.395 279.662L315.143 264.818L386.025 340.723L386.123 355.778Z" fill="#77B29C"/>
</svg>