<svg width="501" height="501" viewBox="0 0 501 501" fill="none" xmlns="http://www.w3.org/2000/svg">
<circle cx="250.5" cy="250.5" r="250.5" fill="#145E61"/>
<path d="M201.608 400.79C233.948 411.618 268.935 411.624 301.279 400.805C300.099 401.185 298.847 401.279 297.625 401.079C296.402 400.879 295.245 400.391 294.248 399.656C293.251 398.921 292.444 397.959 291.892 396.85C291.34 395.741 291.059 394.517 291.074 393.279C291.074 387.923 291.28 370.888 291.28 349.702C291.705 344.335 290.969 338.939 289.124 333.88C287.278 328.822 284.366 324.22 280.584 320.387C315.841 316.426 352.873 302.957 352.873 242.14C353.129 226.388 347.313 211.142 336.631 199.562C341.475 185.875 340.908 170.854 335.046 157.571C335.046 157.571 321.767 153.213 291.47 173.813C265.541 166.681 238.169 166.681 212.24 173.813C181.927 153.403 168.664 157.555 168.664 157.555C162.801 170.838 162.234 185.859 167.079 199.546C156.428 211.145 150.617 226.379 150.837 242.124C150.837 302.735 187.679 316.41 222.936 320.372C217.112 325.976 213.519 333.504 212.827 341.558C208.946 343.734 204.675 345.124 200.257 345.649C195.839 346.174 191.361 345.823 187.078 344.616C182.796 343.409 178.793 341.37 175.299 338.616C171.805 335.862 168.888 332.446 166.715 328.564L166.683 328.485C164.226 324.018 160.728 320.209 156.485 317.381C152.243 314.554 147.381 312.791 142.312 312.243C129.049 312.449 136.972 319.769 142.518 322.748C149.665 328.77 155.242 336.455 158.76 345.123C161.929 354.044 172.229 371.079 212.034 363.742C212.034 377.021 212.24 389.491 212.24 393.263C212.24 397.367 209.293 401.994 201.608 400.79Z" fill="white"/>
<path d="M251.459 92C163.942 92 93 162.942 93 250.459C93 320.546 138.557 379.905 201.624 400.805C209.309 401.994 212.241 397.383 212.241 393.279C212.241 389.507 212.05 377.036 212.05 363.758C172.23 371.094 161.93 354.06 158.761 345.139C155.242 336.473 149.668 328.794 142.519 322.764C136.972 319.785 129.049 312.464 142.313 312.258C147.382 312.806 152.244 314.568 156.487 317.395C160.73 320.223 164.227 324.032 166.684 328.5L166.731 328.595C168.904 332.478 171.821 335.893 175.315 338.648C178.809 341.402 182.812 343.441 187.094 344.647C191.377 345.854 195.855 346.205 200.273 345.68C204.691 345.156 208.962 343.765 212.843 341.589C213.524 333.508 217.121 325.997 222.937 320.387C187.679 316.426 150.838 302.751 150.838 242.14C150.617 226.394 156.428 211.161 167.08 199.562C162.236 185.875 162.803 170.854 168.664 157.57C168.664 157.57 181.927 153.403 212.241 173.813C238.169 166.681 265.542 166.681 291.47 173.813C321.768 153.213 335.046 157.57 335.046 157.57C340.909 170.849 341.48 185.871 336.631 199.562C347.313 211.142 353.129 226.388 352.873 242.14C352.873 302.957 315.825 316.426 280.584 320.387C288.222 328.152 292.136 338.832 291.28 349.702C291.28 370.888 291.074 387.923 291.074 393.279C291.058 394.517 291.336 395.741 291.886 396.85C292.436 397.959 293.242 398.922 294.237 399.659C295.232 400.395 296.388 400.885 297.61 401.087C298.831 401.289 300.084 401.198 301.263 400.821C364.346 379.92 409.918 320.562 409.918 250.459C409.918 162.942 338.976 92 251.459 92Z" fill="#77B29C"/>
</svg>
