<svg width="501" height="501" viewBox="0 0 501 501" fill="none" xmlns="http://www.w3.org/2000/svg">
<circle cx="250.5" cy="250.5" r="250.5" fill="#145E61"/>
<circle cx="251" cy="252" r="139" fill="#77B29C"/>
<path fill-rule="evenodd" clip-rule="evenodd" d="M251 121.805C179.095 121.805 120.805 180.095 120.805 252C120.805 323.905 179.095 382.195 251 382.195C322.905 382.195 381.195 323.905 381.195 252C381.195 180.095 322.905 121.805 251 121.805ZM88 252C88 161.978 160.978 89 251 89C341.022 89 414 161.978 414 252C414 342.022 341.022 415 251 415C160.978 415 88 342.022 88 252Z" fill="white"/>
<path d="M256.728 208.112C241.176 214.587 210.077 227.989 163.432 248.32C155.848 251.328 151.88 254.272 151.528 257.152C150.92 262.016 157.016 263.936 165.32 266.544L168.808 267.664C176.968 270.32 187.976 273.424 193.688 273.552C198.872 273.659 204.653 271.525 211.032 267.152C254.616 237.712 277.112 222.837 278.52 222.528C279.528 222.304 280.904 222.016 281.832 222.848C282.776 223.68 282.68 225.248 282.584 225.68C281.976 228.256 258.04 250.512 245.656 262.016C241.987 265.472 238.344 268.955 234.728 272.464C227.144 279.776 221.448 285.264 235.048 294.224C248.824 303.312 262.728 312.368 276.168 321.952C282.792 326.688 288.744 330.912 296.104 330.256C300.376 329.856 304.792 325.84 307.032 313.84C312.344 285.52 322.76 224.112 325.16 198.8C325.299 196.7 325.208 194.592 324.888 192.512C324.699 190.838 323.888 189.296 322.616 188.192C320.696 186.624 317.736 186.304 316.424 186.32C310.408 186.432 301.176 189.632 256.744 208.112" fill="white"/>
</svg>
